# xmcd CD database file
#
# Track frame offsets:
#	150
#	21945
#	41107
#	57205
#	77671
#	100966
#	120052
#	135670
#	155896
#	171386
#	190634
#	209730
#	228819
#	244384
#	261823
#	277167
#
# Disc length: 3982 seconds
#
# Revision: 0
# Processed by: cddbd v1.5.1PL0 Copyright (c) Steve Scherf et al.
# Submitted via: CDex 1.51
#
DISCID=e50f8c10
DTITLE=Frank Vignola - Jazz Standard Chord Progressions
DYEAR=2003
DGENRE=Jazz
TTITLE0=What's Up With This Thing Called Love (slow)
TTITLE1=What's Up With This Thing Called Love (fast)
TTITLE2=The Satin Dolls (slow)
TTITLE3=The Satin Dolls (fast)
TTITLE4=Outer Nowhere (slow)
TTITLE5=Outer Nowhere (fast)
TTITLE6=Taking The B Train (slow)
TTITLE7=Taking The B Train (fast)
TTITLE8=They Is Never Gonna be Another One Like You (slow)
TTITLE9=They Is Never Gonna Be Another One Like You (fast)
TTITLE10=Girls From Ipanemaville (slow)
TTITLE11=Girls From Ipanemaville (fast)
TTITLE12=Scrapple In The Green Apples (slow)
TTITLE13=Scrapple In The Green Apples (fast)
TTITLE14=Autumn's Finest Leaves (slow)
TTITLE15=Autumn's Finest Leaves (fast)
EXTD=YEAR: 2003
EXTT0=
EXTT1=
EXTT2=
EXTT3=
EXTT4=
EXTT5=
EXTT6=
EXTT7=
EXTT8=
EXTT9=
EXTT10=
EXTT11=
EXTT12=
EXTT13=
EXTT14=
EXTT15=
PLAYORDER=
